<?xml version="1.0" encoding="UTF-8"?>
<svg width="2106px" height="425px" viewBox="0 0 2106 425" version="1.1" xmlns="http://www.w3.org/2000/svg" xmlns:xlink="http://www.w3.org/1999/xlink">
    <!-- Generator: Sketch 63.1 (92452) - https://sketch.com -->
    <title>corrieredellumbria</title>
    <desc>Created with Sketch.</desc>
    <g id="Tutorial-login-home" stroke="none" stroke-width="1" fill="none" fill-rule="evenodd">
        <g id="corrieredellumbria">
            <path d="M370.2997,108.6845 L365.5023,108.6845 L365.5023,52.0023 L374.2976,52.0023 C385.5835,52.0023 392.6877,63.1895 392.6877,74.8317 C392.6877,89.2638 391.2899,108.6845 370.2997,108.6845 Z M607.7786,5.5538 C607.3599,7.3192 606.9787,7.364 606.9787,9.4906 L606.9787,248.8149 C606.9787,252.4903 608.8425,254.3263 612.576,254.3263 L652.5555,254.3263 C656.4223,254.3263 658.9516,251.8358 658.9516,248.0286 L658.9516,11.8521 C658.9516,8.6606 658.0905,4.7666 654.9545,4.7666 C647.7335,4.7666 612.0303,3.929 607.7786,5.5538 Z M673.3445,7.9154 L673.3445,250.3898 C673.3445,252.9348 676.2478,254.3263 678.9418,254.3263 L763.6986,254.3263 C766.3932,254.3263 769.2947,252.9348 769.2947,250.3898 C769.2947,240.3039 770.3339,210.1325 768.4962,202.3675 C760.782,200.5979 734.2222,201.5798 724.5184,201.5798 L724.5184,154.3441 L759.7,154.3441 C761.5644,154.3441 763.6986,152.2436 763.6986,150.4079 L763.6986,106.3224 C763.6986,104.4864 761.5644,102.3856 759.7,102.3856 L724.5184,102.3856 L724.5184,57.5123 L761.3002,57.5123 C764.5402,57.5123 768.4962,56.6639 768.4962,53.5761 L768.4962,7.9154 C768.4962,6.0734 767.1693,4.7666 765.2976,4.7666 L676.5426,4.7666 C674.6714,4.7666 673.3445,6.0734 673.3445,7.9154 Z M928.4142,10.2766 L928.4142,247.2408 C928.4142,252.6955 930.0699,254.3263 935.6111,254.3263 L1019.5673,254.3263 C1022.2622,254.3263 1025.1646,252.9348 1025.1646,250.3898 L1025.1646,205.5165 C1025.1646,203.6797 1023.031,201.5798 1021.1666,201.5798 L980.3877,201.5798 L980.3877,154.3441 L1015.569,154.3441 C1018.154,154.3441 1019.5673,151.4871 1019.5673,148.8341 L1019.5673,107.8964 C1019.5673,105.2441 1018.154,102.3856 1015.569,102.3856 L980.3877,102.3856 L980.3877,57.5123 L1017.1689,57.5123 C1020.4092,57.5123 1024.3649,56.6639 1024.3649,53.5761 L1024.3649,7.9154 C1024.3649,6.0734 1023.0386,4.7666 1021.1666,4.7666 L932.4119,4.7666 C929.8267,4.7666 928.4142,7.624 928.4142,10.2766 Z M0.8886,126.7913 C0.8886,170.5135 8.6179,237.73 52.736,255.2371 C85.0748,268.0695 114.3876,251.001 128.834,223.633 C138.094,206.09 141.5137,191.688 144.9357,171.7828 C148.1833,152.8981 147.9458,156.7059 103.2358,156.7059 C91.455,156.7059 97.9597,165.98 90.9535,187.1245 C78.0502,226.0666 51.2628,206.4596 51.2628,138.5993 C51.2628,116.6498 50.841,103.0141 55.4507,81.3171 C62.9053,46.2389 86.5114,41.8308 94.4506,88.2056 C95.3251,93.313 95.6911,99.1093 96.8397,103.9611 C103.1729,106.9519 130.6678,105.5349 139.2174,105.5349 C142.1166,105.5349 143.6808,104.8739 145.6154,103.9611 C148.6845,90.9869 136.7019,50.5876 128.7904,37.0774 C123.6946,28.3784 117.356,19.9204 109.3079,13.7471 C86.4626,-3.7736 59.0119,-2.0286 36.7449,15.6642 C26.4648,23.8308 17.498,40.1382 12.7604,52.6685 C11.5917,55.7594 10.7546,58.5339 9.5836,62.137 C7.7009,67.9353 6.0032,75.2022 4.8824,81.9121 C2.5551,95.8245 0.8886,110.5437 0.8886,126.7913 Z M205.5843,138.5993 C205.5843,118.322 205.0687,98.5818 210.0566,79.2356 C212.7472,68.7968 217.5712,52.7887 228.7723,52.7887 C261.0275,52.7887 259.8324,194.5734 233.0127,205.0055 C211.2905,213.4535 205.5843,159.5233 205.5843,138.5993 Z M156.0087,124.4289 C156.0087,167.4753 162.9912,235.0042 207.7378,253.7804 C240.8782,267.6857 273.7922,246.4437 286.4574,215.8633 C288.8804,210.016 290.982,204.9354 293.2486,198.1448 C297.8756,184.2765 301.496,158.4773 301.5073,143.2964 C301.5141,135.4892 303.3507,131.7534 301.7531,120.2773 C301.1899,116.2286 301.7639,112.005 301.5385,107.8928 C300.1152,81.8588 293.1602,51.4589 279.3115,29.7957 L267.7181,16.0176 C253.4748,4.3321 244.5993,0.8302 225.5731,0.8302 C200.5611,0.8302 180.4926,22.8375 171.2117,43.3513 C161.6831,64.4161 156.0087,94.0078 156.0087,124.4289 Z M517.4243,108.6845 L511.8284,108.6845 L511.8284,52.0019655 C524.1234,52.0019655 533.7972,51.7194 538.3539,67.6088 C540.3951,74.7305 539.7845,82.2554 538.452,89.2368 C536.4898,99.5223 529.8684,108.6845 517.4243,108.6845 Z M460.6531,7.9154 L460.6531,250.3898 C460.6531,252.9348 463.5564,254.3263 466.2501,254.3263 L506.23,254.3263 C509.165,254.3263 510.095,253.106 511.8284,251.9639 L512.4089,162.4319 L537.1225,233.3576 C538.6118,237.6634 539.6598,240.862 541.1103,245.1766 C542.609,249.6324 542.8766,254.3263 548.6077,254.3263 L590.9873,254.3263 C602.3267,254.3263 592.8174,238.094 587.6864,222.936 C584.9178,214.7572 559.9125,145.83 559.8028,140.9609 C566.7037,139.1473 578.7567,123.0558 581.9386,116.308 C592.5784,93.7456 592.7573,64.6449 583.3423,41.4212 C574.5302,19.6871 554.9808,9.8424 532.9715,5.9915 C525.4906,4.6825 520.6736,5.1981 512.623,4.7703 L467.85,3.9792 C464.6083,3.9792 460.6531,4.8279 460.6531,7.9154 Z M837.2608,108.6845 L832.4637,108.6845 L832.4637,52.0023 C841.6023,52.0023 847.8972,51.1432 854.6417,59.2939 C863.0889,69.5012 863.3174,108.6845 837.2608,108.6845 Z M781.2895,5.5538 C780.8711,7.3192 780.4902,7.364 780.4902,9.4906 L780.4902,250.3898 C780.4902,252.9348 783.392,254.3263 786.0866,254.3263 C837.3628,254.3263 832.464,258.5363 832.4637,236.2189 L832.4637,163.0051 L861.1463,244.9791 C862.6614,249.4796 862.7938,254.3263 868.445,254.3263 L911.6229,254.3263 C921.8729,254.3263 914.0057,241.2946 909.722,228.643 C906.3326,218.6336 902.9968,209.5559 899.7307,199.9048 C896.3699,189.9745 893.1455,181.2625 889.7317,171.1745 C887.1551,163.559 881.1723,148.2269 879.639,141.7486 C918.4923,116.1331 920.84,43.8133 884.101,17.6929 C861.254,1.4501 822.5274,3.9792 789.2852,3.9792 C786.1626,3.9792 783.3441,4.5827 781.2895,5.5538 Z M313.5285,10.2766 L313.5285,247.2408 C313.5285,252.6955 315.1839,254.3263 320.7248,254.3263 C372.2065,254.3263 365.5023,258.5136 365.5023,235.432 L365.5023,162.2173 C367.4823,165.0248 391.998,237.605 394.5872,245.3702 C396.068,249.8127 396.6244,254.3263 402.2824,254.3263 L444.6615,254.3263 C453.9764,254.3263 449.2766,245.3419 446.1451,237.1194 L412.6776,141.7486 C416.6404,139.6847 421.8403,135.0609 424.8671,131.7069 C450.1791,103.6547 451.8314,39.9452 415.8898,16.5622 C392.8453,1.5712 354.3327,3.9792 321.5248,3.9792 C316.756,3.9792 313.5285,5.5844 313.5285,10.2766 L313.5285,10.2766 Z" id="Fill-1" fill="#231F20"></path>
            <path d="M1004.4646,291.624 L1009.7784,291.8119 C1010.1551,297.6859 1008.9073,299.8748 1004.4476,301.4072 L1004.4462,305.9693 C1018.9386,307.4501 1017.5201,288.2831 1016.8931,278.787 L1004.4286,278.7442 L1004.4646,291.624 Z M868.7494,358.3348 L882.7452,358.3348 C905.6066,358.3348 909.4201,337.0294 909.4201,316.7925 C909.4201,297.1788 901.07,279.3381 881.3644,279.3381 L868.7437,279.3381 L868.7494,358.3348 Z M883.8139,300.2308 L883.8139,337.9537 C883.8139,341.5214 886.3203,340.5338 888.4769,339.0805 C895.9742,334.0278 895.8143,304.4618 888.696,299.343 C886.9688,298.1015 883.8139,296.5441 883.8139,300.2308 Z M913.0382,358.3348 L944.0861,358.3348 L944.0095,340.7637 L929.3709,340.7263 C928.8209,336.7581 929.0951,333.3919 929.1075,329.2125 C929.1075,326.7801 929.215,327.052 931.5085,327.052 L942.6061,327.052 L942.5117,309.4854 L929.3468,309.4474 C928.8581,305.5642 928.9604,301.069 929.2867,297.1524 L943.9755,296.931 L944.0861,279.3381 L913.0481,279.3381 L913.0382,358.3348 Z M965.5373,340.3847 L965.3941,279.5328 L949.3591,279.3381 L949.3591,358.3365 L978.5435,358.3263 L978.4485,340.7688 C975.7006,340.7612 967.5581,341.1929 965.5373,340.3847 Z M982.8864,358.3348 L1012.0348,358.256 L1011.9637,340.8082 C1002.5234,340.482 998.8917,342.3559 998.8917,338.4132 L998.9013,279.3381 L982.8839,279.3381 L982.8864,358.3348 Z" id="Fill-2" fill="#929497"></path>
            <path d="M1687.8211,122.5445 L1687.8211,361.9093 C1687.8211,365.5853 1689.6563,367.4216 1693.3328,367.4216 L1732.7021,367.4216 C1735.355,367.4216 1738.2138,366.0298 1738.2138,363.4848 L1738.2138,122.5445 C1738.2138,120.1262 1737.485,117.8203 1735.0639,117.8203 L1690.971,117.8203 C1688.5496,117.8203 1687.8211,120.1262 1687.8211,122.5445 Z M1820.8899,213.0927 L1821.6759,213.0927 C1821.6759,219.681 1831.4892,275.6122 1832.7002,280.8093 L1811.4406,280.8093 L1820.8899,213.0927 Z M1900.4153,361.9241 L1900.4153,362.8941 C1900.2798,365.6771 1898.8843,367.4216 1894.9033,367.4216 L1853.1725,367.4216 C1848.3797,367.4216 1847.5619,364.6054 1846.7694,360.439 C1846.095,356.9008 1845.3656,352.3889 1844.708,349.1149 C1843.7524,344.3549 1840.574,330.3146 1840.574,326.4765 L1803.5671,326.4765 C1801.8748,333.7378 1800.6894,341.1702 1799.2967,348.9785 C1797.2328,360.5598 1797.4057,367.4216 1790.9685,367.4216 L1752.387,367.4216 C1749.734,367.4216 1746.8753,366.0298 1746.8753,363.4848 C1746.8753,358.4868 1751.7608,337.9234 1752.9777,331.7924 L1794.446,130.7462 C1795.617,124.8913 1795.7443,117.8203 1799.63,117.8203 C1809.8044,117.8203 1840.6533,116.7913 1848.448,118.6077 C1857.5569,157.7051 1866.1257,201.5341 1874.6226,241.2475 C1876.733,251.1084 1879.2229,262.5091 1881.326,272.3396 C1883.5602,282.7793 1885.4129,292.7692 1887.8167,302.8552 C1890.2219,312.9417 1892.0738,322.9318 1894.3078,333.3718 C1895.3283,338.1371 1896.3776,343.4941 1897.5985,348.9785 C1898.6816,353.847 1900.2688,358.5075 1900.4153,361.9241 Z M1460.2674,319.3896 L1460.2674,261.9118 C1469.5645,262.1182 1476.1145,270.9266 1478.408,279.2017 C1482.5114,293.9969 1477.8791,317.925 1460.2674,319.3896 Z M1460.2674,216.2431 L1460.2674,165.8496 C1472.9916,165.8496 1478.351,178.6016 1477.9349,190.8336 C1477.4995,203.6255 1471.8421,215.2788 1460.2674,216.2431 Z M1410.6617,118.6077 C1410.2498,120.3723 1409.8739,120.4176 1409.8739,122.5445 L1409.8739,361.9093 C1409.8739,365.5853 1411.7096,367.4216 1415.3862,367.4216 C1447.3221,367.4216 1486.5012,371.3152 1508.9026,349.1305 C1523.8204,334.3566 1529.5561,317.4255 1529.5561,294.9814 C1529.5561,272.6577 1518.9922,247.8216 1505.9344,239.0765 C1511.0115,231.4952 1519.0597,228.6592 1524.2102,206.9608 C1530.5156,180.4058 1521.8626,149.9918 1502.9988,131.7798 C1493.619,122.7248 1479.687,117.8203 1465.778,117.8203 C1457.8089,117.8203 1414.9774,116.9319 1410.6617,118.6077 Z M1053.1876,302.4932 C1054.0063,304.3938 1054.235,313.8729 1054.7506,317.2124 C1055.4721,321.8892 1056.4937,326.2648 1057.7681,330.6032 C1064.0537,351.998 1080.8393,364.3293 1102.0053,369.0317 C1106.2372,369.9719 1113.3771,369.2987 1116.6803,371.3575 C1148.0978,371.3575 1169.9521,362.3456 1180.5003,341.1935 C1190.9443,320.2556 1188.6188,286.6146 1188.6188,255.6121 L1188.6188,138.2921 C1188.6188,131.6987 1190.3244,119.3889 1185.3161,117.9722 C1180.6676,116.6583 1141.7456,117.2961 1139.013,118.6077 C1134.9774,122.6426 1141.3224,290.8796 1136.5231,308.2407 C1135.5517,311.7562 1134.4796,314.5679 1131.7425,316.8436 C1129.437,318.7609 1124.8571,320.1941 1120.8968,320.2021 C1103.5907,320.2378 1103.5808,300.6804 1103.5808,283.1708 C1103.5808,262.0442 1104.8573,127.4629 1102.7931,118.6077 C1093.142,116.359 1067.7308,117.8203 1055.5497,117.8203 L1053.3566,120.3502 L1053.1876,302.4932 Z M1600.4211,221.7551 L1594.1222,221.7551 L1594.1222,165.063 C1601.4997,165.063 1611.0442,164.2291 1616.1644,172.1536 C1623.1192,182.9187 1622.4131,202.1535 1615.5592,213.271 C1612.8703,217.6301 1607.0425,221.7551 1600.4211,221.7551 Z M1544.517,118.6077 C1544.3112,121.0702 1543.7293,121.4041 1543.7293,124.1186 L1543.7293,360.335 C1543.7293,363.1886 1544.3906,364.7301 1545.3048,366.6335 C1552.9005,368.4032 1579.0546,367.4216 1588.6102,367.4216 C1591.501,367.4216 1592.4166,366.2013 1594.1222,365.0592 L1594.1222,274.509 L1618.6308,346.8489 C1623.539,361.5774 1623.052,367.4216 1631.1291,367.4216 L1671.2855,367.4216 C1681.0937,367.4216 1675.0947,357.2146 1672.5637,349.6081 C1670.9417,344.7353 1669.608,340.7453 1668.0364,336.0256 C1665.0915,327.1872 1661.773,318.0129 1658.7876,309.0545 L1640.5775,254.8249 C1648.4082,249.5811 1658.1841,238.8199 1662.0774,229.8678 C1664.7451,223.7294 1666.4907,218.9304 1667.9491,212.1184 C1671.0939,197.4225 1671.1611,186.4853 1668.7108,171.5751 C1666.0278,155.2455 1658.5364,140.7044 1645.4256,131.0819 C1622.6657,114.3787 1585.1619,117.0325 1551.6037,117.0325 C1548.2163,117.0325 1547.335,117.9501 1544.517,118.6077 Z M1203.578,367.4216 L1246.0974,367.4216 C1248.9888,367.4216 1249.9038,366.2013 1251.6091,365.0592 L1252.5111,333.6782 C1253.6308,323.7065 1253.6736,299.6769 1254.7173,287.0656 L1255.5448,254.8241 C1255.5297,248.3517 1256.3339,244.9244 1256.3339,239.0765 L1257.1214,239.0765 C1257.1214,245.1911 1258.3238,250.9261 1259.2808,255.8153 L1278.4246,362.6529 C1279.0145,365.7511 1280.1722,367.4216 1283.8921,367.4216 L1313.8132,367.4216 C1320.1032,367.4216 1319.7594,361.9757 1320.7683,354.6918 L1328.9967,303.0794 C1331.3046,289.2588 1339.0089,244.7024 1339.0089,232.7776 L1339.7967,232.7776 C1339.7967,239.195 1340.3735,243.388 1340.5595,250.1248 L1342.1287,276.1137 C1342.1667,280.3767 1342.8657,280.7441 1342.9689,284.7228 C1343.1483,291.6144 1343.5166,295.8899 1343.7082,302.8798 L1345.2865,328.8613 C1345.2701,333.2102 1345.9104,333.9158 1346.0989,337.4968 C1346.2492,340.3399 1345.8934,343.2174 1346.2109,346.0461 C1349.1246,372.0695 1337.8558,367.4216 1393.3391,367.4216 C1396.2294,367.4216 1397.1452,366.2013 1398.8508,365.0592 C1398.8508,349.1098 1394.0402,319.0603 1393.344,302.8495 C1393.1331,297.9356 1392.3697,292.2006 1391.8969,287.7618 L1387.4927,240.1981 C1386.7472,234.9932 1386.6029,230.2457 1386.1933,224.9642 C1385.8143,220.0988 1385.005,214.4377 1384.6501,209.1843 L1378.832,146.4995 C1378.0204,140.8407 1378.0941,136.3407 1377.3656,130.6439 C1376.8256,126.4279 1377.6621,117.8203 1372.8668,117.8203 C1361.5149,117.8203 1320.2492,116.7405 1312.2374,118.6077 L1308.3723,147.0253 C1307.0497,161.0614 1298.065,227.197 1298.065,235.9278 L1281.1274,122.9459 C1280.6694,120.1302 1280.5188,117.8203 1277.5929,117.8203 L1220.1131,117.8203 C1217.1943,117.8203 1217.1809,120.4959 1216.9176,123.2857 C1216.622,126.4211 1216.2194,127.7137 1216.1715,131.2004 C1216.114,135.4727 1215.5865,142.91 1214.9339,147.2853 L1212.2866,179.2827 C1211.8433,185.0734 1211.9564,189.8809 1211.3353,195.6542 C1210.896,199.7401 1209.9812,207.1912 1209.8704,211.511 C1209.4361,228.499 1206.0649,256.8086 1205.1476,276.0782 L1202.5749,308.1517 C1201.0751,319.3658 1201.4342,330.3957 1199.9746,340.1945 C1199.2317,345.179 1199.1058,351.3928 1198.8374,356.3855 C1198.5505,361.7038 1196.6258,367.4216 1203.578,367.4216 L1203.578,367.4216 Z" id="Fill-3" fill="#231F20"></path>
            <path d="M1912.6258,318.8825 C1915.5424,313.3708 1917.5496,315.8078 1918.5086,312.2154 L1919.6852,312.2154 C1920.0268,313.6809 1920.3301,314.6184 1919.2671,316.1119 C1917.8923,318.0474 1917.5048,316.208 1914.7631,317.8819 C1913.3319,318.755 1914.5398,318.7232 1912.6258,318.8825 Z M1937.334,183.1038 C1939.2913,184.6139 1937.0877,185.3582 1941.6316,187.5078 C1943.831,188.5481 1945.4961,189.4002 1945.5947,191.868 C1944.9538,192.5186 1944.2109,193.1538 1942.8244,193.2791 C1940.5649,194.7066 1940.426,193.5198 1938.4395,196.0573 C1937.3556,197.4426 1936.7336,198.9963 1935.7653,200.4425 C1930.447,200.4425 1931.318,199.9745 1928.3893,202.4758 C1927.0034,203.6587 1927.1477,202.7641 1926.7452,204.4657 C1927.9584,205.2875 1929.2842,207.259 1931.4499,207.0994 C1934.4543,206.878 1931.9683,204.6928 1935.8946,207.1102 L1935.811,213.294 L1940.8634,212.9906 L1943.3069,216.7573 C1943.3477,216.8205 1943.4138,216.9141 1943.4517,216.9798 C1943.4906,217.0459 1943.5456,217.146 1943.581,217.2163 C1943.6332,217.3203 1943.8435,217.8966 1943.892,218.0341 C1946.3751,225.1453 1944.068,223.3961 1943.1751,225.9858 C1942.8077,227.0513 1942.9877,227.7484 1943.0722,228.8488 C1944.1185,229.7221 1944.5879,230.3614 1946.4443,231.0349 C1948.0467,231.6157 1948.6992,231.6438 1949.2665,232.9939 C1950.08,232.2348 1949.3736,233.1872 1949.8677,232.2387 L1950.6679,229.0713 C1952.3489,229.5203 1954.1389,230.9144 1954.5896,232.6016 C1953.3946,234.3866 1951.6147,234.9543 1948.693,234.9543 L1947.9228,235.4807 C1945.1483,238.704 1944.3914,238.3256 1941.6645,238.4999 C1938.9549,238.674 1936.7166,240.0045 1936.1571,242.4063 C1932.1659,241.476 1929.6207,236.4896 1926.5434,241.4315 C1925.439,243.204 1925.9694,243.3744 1926.4087,245.108 C1926.7407,246.4196 1926.5731,246.6668 1925.8398,248.1578 L1924.4548,251.4891 C1924.0392,252.4211 1923.3439,253.1088 1922.1528,253.5278 C1920.0994,254.2509 1920.0605,253.1913 1918.55,253.8169 C1916.5952,254.6251 1919.0931,254.5202 1912.7508,257.4336 C1909.2835,259.0253 1908.1151,261.2769 1906.9546,265.4024 C1906.1115,268.4003 1908.1672,268.3484 1908.6372,272.3235 C1908.9309,274.7995 1907.9209,274.1133 1907.964,276.0998 C1907.9807,276.8748 1908.8044,281.4009 1911.4494,282.0168 C1913.165,280.7602 1911.7777,281.3169 1913.4102,278.8797 C1914.8448,278.9991 1914.9882,279.4387 1916.1558,280.0561 L1914.7161,289.5981 C1913.8569,292.1663 1911.7695,294.832 1911.2048,297.4594 C1910.8522,299.1012 1911.3593,301.0614 1910.8944,302.6403 C1910.1639,305.1249 1907.8599,305.2635 1908.4172,310.9892 C1908.6335,313.205 1909.3019,312.8558 1911.0571,313.7841 L1911.0571,318.4911 C1909.8346,317.8436 1909.8277,317.7061 1907.9195,317.7061 C1907.2839,318.6552 1906.6039,320.0946 1905.9845,320.8688 C1904.536,322.675 1903.8483,321.3271 1902.4296,322.9545 C1906.2201,324.2162 1906.4163,327.0307 1908.1924,331.7935 C1908.6219,332.9472 1908.8634,334.4657 1909.2503,335.5885 C1912.2979,336.6725 1914.8009,336.8009 1916.3072,339.6687 C1916.3925,341.5367 1915.6385,342.8696 1914.1954,343.824 C1913.5187,344.6497 1912.2715,347.2151 1911.5677,347.6304 C1910.4253,348.3044 1910.0409,347.517 1908.1848,349.3377 C1908.1213,349.3995 1908.0405,349.4783 1907.9779,349.5426 C1907.9129,349.6095 1907.8324,349.6931 1907.7698,349.7603 C1907.3182,350.2416 1907.5864,349.9023 1907.1357,350.4846 C1908.4935,350.9548 1910.1285,352.3007 1910.861,353.5199 L1911.4234,354.8873 C1911.7304,355.7329 1911.6419,355.6949 1913.4363,356.2783 C1918.7084,357.9924 1924.3607,363.8924 1924.3913,363.9066 C1926.4929,364.069 1927.1783,363.4905 1928.5095,362.614 C1930.7866,361.1148 1929.9251,361.8365 1932.9525,361.5241 C1938.2703,360.9745 1935.0113,361.6539 1937.7017,361.5981 C1939.2046,361.5672 1938.3341,361.0629 1939.96,361.39 C1941.5715,361.712 1940.1449,361.972 1942.0398,362.3878 L1942.0761,362.0233 C1942.5444,360.3817 1942.9038,359.2272 1943.6026,358.1095 C1946.9052,357.885 1946.7042,358.7603 1948.6783,360.081 C1956.2309,365.1315 1951.9917,363.1021 1955.7606,367.1452 C1958.4113,369.9872 1956.638,369.0949 1955.9789,371.8278 C1956.0639,371.9029 1956.2045,371.8856 1956.2493,372.033 C1956.3117,372.2376 1957.8999,372.8794 1958.2208,374.0331 C1958.6001,375.3957 1957.4455,375.8657 1956.7012,376.3093 C1957.0203,383.8617 1962.3988,380.7288 1963.2376,385.2895 C1963.7915,388.3058 1962.0742,388.0139 1963.665,392.0022 C1964.0256,392.907 1963.8363,392.6621 1964.4111,393.3572 C1967.0672,396.5688 1964.9582,393.2412 1966.3761,396.477 C1966.4285,396.5992 1966.5076,396.7321 1966.555,396.8324 C1966.6029,396.9359 1966.6624,397.0861 1966.748,397.1916 C1973.2167,397.0938 1970.636,398.1789 1974.1994,399.916 C1977.0403,399.7476 1978.4851,397.949 1979.6901,396.0127 C1981.9465,395.791 1983.0954,395.8483 1984.2672,397.0569 C1985.9386,398.7798 1985.163,398.7263 1984.4226,400.6003 L1984.3038,411.5272 C1987.7215,411.9295 1988.3256,410.585 1991.2141,411.6673 C1991.4831,414.435 1990.3249,413.5656 1990.5519,415.326 C1990.6869,416.3719 1990.459,415.8481 1991.103,416.478 C1992.4412,418.1598 1989.595,416.381 1991.9151,416.9499 C1992.7185,417.1455 1997.5654,416.612 1998.9147,418.0855 C2001.0543,420.4201 1998.1406,423.1816 2002.437,424.949 L2003.4842,422.6087 C2012.1032,421.5301 2008.9632,419.5374 2014.2028,416.9624 C2016.6267,415.0487 2014.6478,413.9855 2014.7261,411.879 C2014.7972,409.9529 2016.3194,408.9265 2015.7712,406.3401 C2019.1569,406.6225 2015.9569,410.1422 2019.2187,411.9133 C2021.9462,413.395 2025.4535,411.5352 2027.5395,409.8707 C2031.6948,406.5544 2029.0847,409.8219 2032.2433,408.3323 C2034.1264,407.4442 2034.9884,404.8797 2034.9884,402.0264 C2033.6283,401.1153 2032.4077,400.8727 2032.2433,398.8887 C2036.4925,398.8887 2032.4469,397.7118 2039.6951,397.7118 L2041.2635,393.7906 C2045.556,393.7906 2046.0809,394.2779 2048.6324,392.1388 C2057.1485,384.9967 2057.7172,388.8101 2059.5466,385.0108 C2061.2134,381.5483 2059.126,380.2866 2058.9123,377.7105 C2065.4396,381.1648 2062.9992,377.7315 2066.5258,376.6781 C2068.5512,376.0729 2073.6581,378.2162 2076.3808,376.3547 C2077.2771,375.7415 2078.0135,373.5713 2078.5215,372.6118 C2082.8435,372.9721 2081.8516,379.4362 2090.5696,372.1106 C2091.7885,371.0859 2092.9104,369.3542 2093.8167,368.6904 C2096.3956,369.291 2095.7136,371.0584 2098.5828,369.9662 C2100.2967,369.3143 2101.1247,367.8215 2101.9286,366.2146 C2104.268,361.5448 2102.3042,362.9151 2103.5401,359.5889 C2103.5452,359.5764 2104.0398,358.5559 2104.1807,358.2628 C2104.7397,357.0938 2104.9778,356.9192 2105.0481,355.7479 C2103.4023,354.7229 2099.846,355.0577 2097.7384,354.5894 C2087.1955,352.2477 2078.8344,346.105 2075.7041,335.4488 C2075.0692,333.2879 2074.5603,331.1089 2074.2009,328.7783 C2073.9444,327.116 2073.8301,322.3944 2073.4225,321.4476 C2071.3053,321.8067 2071.758,321.8878 2071.7385,320.3687 C2071.6948,316.8251 2070.477,318.4026 2071.7231,314.0489 C2072.2365,312.2554 2072.2464,312.506 2072.2464,310.2544 C2070.0102,309.0715 2069.8761,309.4692 2068.4724,308.9301 C2066.9859,308.36 2066.9105,307.064 2066.3631,305.7808 C2064.4571,304.9562 2064.9911,303.921 2064.2391,306.5989 C2062.6806,295.8799 2058.9786,292.8939 2060.5609,288.4373 C2060.6814,288.4192 2058.3433,282.4151 2058.4474,282.3933 C2058.5449,282.372 2058.6801,282.3113 2058.7566,282.2895 C2058.8303,282.2697 2058.9939,282.2827 2059.0443,282.1603 C2059.0965,282.0398 2059.2388,282.0792 2059.3227,282.0168 C2059.4571,279.8945 2061.0003,278.9194 2060.4557,276.1888 C2059.8491,273.1495 2059.3037,277.6637 2059.3037,269.8593 C2057.5338,268.6739 2057.538,268.4862 2054.7708,268.1174 C2049.9375,267.4723 2052.5592,268.26 2051.0677,265.1524 C2052.8484,265.1133 2053.2364,264.6844 2054.0537,263.432 C2054.709,262.4266 2055.4117,260.9571 2055.6825,259.9627 C2056.0711,258.5352 2057.0612,252.8789 2056.3358,251.2578 C2054.9401,248.1335 2053.6877,253.4546 2051.21,246.5778 C2049.546,241.9587 2051.225,239.818 2049.8913,238.4846 C2048.6908,237.9078 2048.3501,238.2879 2047.0855,237.7601 C2046.6277,237.5693 2045.319,236.8017 2044.7932,236.5239 C2045.09,232.9559 2050.2663,231.2738 2043.2758,221.96 C2042.2142,220.5441 2042.6697,221.0867 2041.8939,219.421 C2040.9769,217.4546 2041.2595,218.7543 2040.0777,217.3155 C2039.4017,216.4931 2039.0283,215.5846 2038.9107,214.1687 C2041.126,213.1055 2041.5889,213.8527 2042.6247,212.3928 C2042.6454,212.3642 2045.6467,206.9988 2041.6552,205.9329 C2041.8721,203.3327 2042.4563,205.554 2042.5932,203.0099 C2042.5986,202.9274 2042.5768,202.8066 2042.5813,202.723 C2042.6751,201.1727 2043.5167,200.6594 2043.2245,199.6582 C2041.7164,197.4055 2042.2669,198.424 2039.6951,198.4812 C2039.269,193.3624 2033.5152,200.4913 2032.4415,202.2142 C2032.3655,202.3352 2031.6767,203.6383 2031.6197,203.7545 L2031.0667,205.1486 C2029.4359,204.7685 2029.0654,204.6208 2027.7632,203.7452 C2026.5219,202.9101 2026.0391,202.6708 2024.7916,202.0101 C2021.2713,205.0712 2022.1392,203.1374 2020.3452,204.6231 C2019.5815,205.256 2019.5512,205.3867 2019.3012,206.3253 L2018.4046,204.4762 C2016.3415,201.5251 2015.0651,203.8838 2008.0511,195.22 C2003.3047,189.3585 2004.8757,187.9185 2001.3208,185.0858 C1995.6798,180.5901 1998.2364,183.8142 1994.201,184.755 C1992.5827,183.6705 1991.7484,182.0494 1990.671,180.4407 C1987.8763,181.0918 1987.6249,180.2519 1986.2152,182.6514 C1985.4711,183.9185 1984.5816,186.0054 1983.6119,186.7155 C1982.5203,184.4409 1982.8839,181.883 1979.6901,181.6176 C1977.0998,182.309 1979.5186,183.1858 1975.3767,183.1858 C1973.2816,180.058 1971.7571,179.3015 1973.8003,178.9233 C1975.9427,178.5279 1975.7049,179.3434 1977.0712,177.8215 L1980.2466,172.7404 C1981.2761,170.6461 1980.9243,171.4637 1980.3671,169.5681 C1979.471,166.5203 1982.2382,165.5478 1978.514,163.5771 C1977.2373,164.4309 1977.6396,164.224 1976.9445,165.5375 C1974.702,165.0148 1975.4161,165.1702 1973.5942,166.098 C1972.0236,166.899 1970.8489,167.3208 1970.2774,169.4596 L1969.101,169.4596 C1968.2263,166.187 1964.9111,169.2563 1961.941,168.4116 L1960.0585,167.9138 C1958.3631,167.532 1959.6243,168.3815 1958.4303,167.1884 C1957.4328,166.1915 1957.6644,165.26 1955.766,164.7526 C1954.2041,165.7992 1952.5609,169.1855 1950.4479,171.9849 C1948.591,174.444 1946.3541,176.373 1946.3541,180.4407 C1945.1763,179.8755 1942.9656,180.348 1940.8504,180.4268 C1938.5166,180.5161 1937.8275,181.1964 1937.334,183.1038 L1937.334,183.1038 Z" id="Fill-4" fill="#009B54"></path>
            <path d="M1932.0624,340.563 C1932.0624,336.7711 1933.1549,333.5283 1935.3197,330.809 C1937.5049,328.1164 1940.1403,326.7563 1943.2907,326.7563 C1946.4616,326.7563 1949.1185,328.09 1951.3046,330.7571 C1953.4683,333.3973 1954.561,336.6671 1954.561,340.563 C1954.561,344.3538 1953.4473,347.5703 1951.2402,350.2119 C1949.0332,352.8787 1946.3751,354.2124 1943.2907,354.2124 C1940.1403,354.2124 1937.5049,352.9045 1935.3197,350.264 C1933.1549,347.6233 1932.0624,344.4065 1932.0624,340.563" id="Fill-5" fill="#FEFEFE"></path>
            <path d="M1967.5462,352.8005 L1967.5462,280.1601 L1986.3161,280.1601 L1986.3161,352.8005 L1967.5462,352.8005 Z M1966.9036,256.6518 C1966.9036,253.2273 1967.8677,250.3229 1969.8176,247.9441 C1971.7662,245.5658 1974.1246,244.3892 1976.9306,244.3892 C1979.7814,244.3892 1982.1597,245.5658 1984.0657,247.9186 C1985.9952,250.2725 1986.9593,253.174 1986.9593,256.6518 C1986.9593,260.1036 1985.9952,262.9805 1984.0657,265.3335 C1982.1597,267.686 1979.7814,268.8629 1976.9306,268.8629 C1974.1246,268.8629 1971.7662,267.686 1969.8176,265.3063 C1967.8677,262.9278 1966.9036,260.0514 1966.9036,256.6518 L1966.9036,256.6518 Z" id="Fill-6" fill="#FEFEFE"></path>
            <path d="M2002.5158,296.0055 L1994.0298,296.0055 L1994.0298,291.1169 L2018.3295,258.9785 L2021.1573,258.9785 L2021.1573,280.1601 L2041.4712,280.1601 L2041.4712,296.0055 L2021.1573,296.0055 L2021.1573,322.8346 C2021.1573,328.4044 2021.8008,332.1424 2023.1064,333.9997 C2024.3939,335.8552 2026.7506,336.7966 2030.1783,336.7966 C2031.8499,336.7966 2033.6278,336.5089 2035.4933,335.9091 C2037.3355,335.3337 2039.3495,334.4175 2041.4712,333.1893 L2041.5994,350.2912 C2038.5776,351.676 2035.5565,352.6962 2032.5574,353.3756 C2029.5357,354.0296 2026.5361,354.3695 2023.5574,354.3695 C2015.9929,354.3695 2010.5719,351.9898 2007.3577,347.2307 C2004.1222,342.4707 2002.5158,334.2868 2002.5158,322.6775 L2002.5158,296.0055 Z" id="Fill-7" fill="#FEFEFE"></path>
        </g>
    </g>
</svg>